<svg width="25" height="25" viewBox="0 0 25 25" fill="none" xmlns="http://www.w3.org/2000/svg">
<path d="M3.23145 4.62109C3.23145 4.20688 3.56723 3.87109 3.98145 3.87109C4.39566 3.87109 4.73145 4.20688 4.73145 4.62109V20.3711H20.4814C20.8957 20.3711 21.2314 20.7069 21.2314 21.1211C21.2314 21.5353 20.8957 21.8711 20.4814 21.8711H3.98145C3.56723 21.8711 3.23145 21.5353 3.23145 21.1211V4.62109ZM17.2314 4.87109C15.5746 4.87109 14.2314 6.21424 14.2314 7.87109C14.2314 9.52795 15.5746 10.8711 17.2314 10.8711C18.8883 10.8711 20.2314 9.52795 20.2314 7.87109C20.2314 6.21424 18.8883 4.87109 17.2314 4.87109ZM15.7314 7.87109C15.7314 7.04267 16.403 6.37109 17.2314 6.37109C18.0599 6.37109 18.7314 7.04267 18.7314 7.87109C18.7314 8.69952 18.0599 9.37109 17.2314 9.37109C16.403 9.37109 15.7314 8.69952 15.7314 7.87109ZM6.23145 9.87109C6.23145 8.21424 7.57459 6.87109 9.23145 6.87109C10.8883 6.87109 12.2314 8.21424 12.2314 9.87109C12.2314 11.5279 10.8883 12.8711 9.23145 12.8711C7.57459 12.8711 6.23145 11.5279 6.23145 9.87109ZM9.23145 8.37109C8.40302 8.37109 7.73145 9.04267 7.73145 9.87109C7.73145 10.6995 8.40302 11.3711 9.23145 11.3711C10.0599 11.3711 10.7314 10.6995 10.7314 9.87109C10.7314 9.04267 10.0599 8.37109 9.23145 8.37109ZM15.2314 12.8711C13.5746 12.8711 12.2314 14.2142 12.2314 15.8711C12.2314 17.5279 13.5746 18.8711 15.2314 18.8711C16.8883 18.8711 18.2314 17.5279 18.2314 15.8711C18.2314 14.2142 16.8883 12.8711 15.2314 12.8711ZM13.7314 15.8711C13.7314 15.0427 14.403 14.3711 15.2314 14.3711C16.0599 14.3711 16.7314 15.0427 16.7314 15.8711C16.7314 16.6995 16.0599 17.3711 15.2314 17.3711C14.403 17.3711 13.7314 16.6995 13.7314 15.8711Z" fill="#424646"/>
</svg>
