<svg width="25" height="25" viewBox="0 0 25 25" fill="none" xmlns="http://www.w3.org/2000/svg">
<path d="M5.48145 4.7793C3.68652 4.7793 2.23145 6.23437 2.23145 8.0293V17.5293C2.23145 19.3242 3.68652 20.7793 5.48144 20.7793H18.9814C20.7764 20.7793 22.2314 19.3242 22.2314 17.5293V8.0293C22.2314 6.23437 20.7764 4.7793 18.9814 4.7793H5.48145ZM3.73145 8.0293C3.73145 7.0628 4.51495 6.2793 5.48145 6.2793H18.9814C19.9479 6.2793 20.7314 7.0628 20.7314 8.0293V17.5293C20.7314 18.4958 19.9479 19.2793 18.9814 19.2793H5.48144C4.51495 19.2793 3.73145 18.4958 3.73145 17.5293V8.0293ZM5.23145 8.5293C5.23145 8.11508 5.56723 7.7793 5.98145 7.7793H11.4814C11.8957 7.7793 12.2314 8.11508 12.2314 8.5293C12.2314 8.94351 11.8957 9.2793 11.4814 9.2793H5.98145C5.56723 9.2793 5.23145 8.94351 5.23145 8.5293ZM6.23145 13.7793C5.67916 13.7793 5.23145 14.227 5.23145 14.7793V16.7793C5.23145 17.3316 5.67916 17.7793 6.23145 17.7793H13.2314C13.7837 17.7793 14.2314 17.3316 14.2314 16.7793V14.7793C14.2314 14.227 13.7837 13.7793 13.2314 13.7793H6.23145ZM5.23145 11.0293C5.23145 10.6151 5.56723 10.2793 5.98145 10.2793H16.4814C16.8957 10.2793 17.2314 10.6151 17.2314 11.0293C17.2314 11.4435 16.8957 11.7793 16.4814 11.7793H5.98145C5.56723 11.7793 5.23145 11.4435 5.23145 11.0293Z" fill="#424646"/>
</svg>
