<svg width="25" height="25" viewBox="0 0 25 25" fill="none" xmlns="http://www.w3.org/2000/svg">
<path d="M5.34277 4.7793C3.54785 4.7793 2.09277 6.23437 2.09277 8.0293V17.5293C2.09277 19.3242 3.54785 20.7793 5.34277 20.7793H18.8428C20.6377 20.7793 22.0928 19.3242 22.0928 17.5293V8.0293C22.0928 6.23437 20.6377 4.7793 18.8428 4.7793H5.34277ZM3.59277 8.0293C3.59277 7.0628 4.37628 6.2793 5.34277 6.2793H18.8428C19.8093 6.2793 20.5928 7.0628 20.5928 8.0293V17.5293C20.5928 18.4958 19.8093 19.2793 18.8428 19.2793H5.34277C4.37628 19.2793 3.59277 18.4958 3.59277 17.5293V8.0293ZM5.09277 8.5293C5.09277 8.11508 5.42856 7.7793 5.84277 7.7793H11.3428C11.757 7.7793 12.0928 8.11508 12.0928 8.5293C12.0928 8.94351 11.757 9.2793 11.3428 9.2793H5.84277C5.42856 9.2793 5.09277 8.94351 5.09277 8.5293ZM6.09277 13.7793C5.54049 13.7793 5.09277 14.227 5.09277 14.7793V16.7793C5.09277 17.3316 5.54049 17.7793 6.09277 17.7793H13.0928C13.6451 17.7793 14.0928 17.3316 14.0928 16.7793V14.7793C14.0928 14.227 13.6451 13.7793 13.0928 13.7793H6.09277ZM5.09277 11.0293C5.09277 10.6151 5.42856 10.2793 5.84277 10.2793H16.3428C16.757 10.2793 17.0928 10.6151 17.0928 11.0293C17.0928 11.4435 16.757 11.7793 16.3428 11.7793H5.84277C5.42856 11.7793 5.09277 11.4435 5.09277 11.0293Z" fill="#585DF8"/>
</svg>
