<svg width="24" height="24" viewBox="0 0 24 24" fill="none" xmlns="http://www.w3.org/2000/svg">
<path d="M12 2C16.0041 2 19.25 5.24593 19.25 9.25C19.25 11.3461 18.3493 13.2697 16.5869 14.9919C16.51 15.0671 16.4504 15.1577 16.4118 15.2572L16.3804 15.3595L15.2493 20.2551C15.0266 21.219 14.2035 21.9174 13.2302 21.992L13.057 21.9986H10.9433C9.95374 21.9986 9.08791 21.3536 8.79629 20.4219L8.75088 20.2545L7.62132 15.3598C7.58904 15.2199 7.51728 15.0922 7.41456 14.9919C5.73515 13.3516 4.83778 11.5288 4.75613 9.54825L4.75 9.25L4.75388 9.01069C4.88014 5.11739 8.07601 2 12 2ZM14.115 18.498H9.884L10.2125 19.9172C10.2831 20.2235 10.5357 20.4494 10.8401 20.4915L10.9433 20.4986H13.057C13.3713 20.4986 13.6481 20.3034 13.7577 20.0164L13.7878 19.9174L14.115 18.498ZM12 3.5C8.89821 3.5 6.37006 5.95601 6.25415 9.02944L6.25 9.25L6.25672 9.52701C6.33286 11.0904 7.05722 12.5461 8.46262 13.9187C8.57114 14.0247 8.66814 14.1409 8.7525 14.2653C9.72943 13.775 10.8325 13.499 12 13.499C13.168 13.499 14.2715 13.7752 15.2487 14.2659C15.2989 14.1918 15.3535 14.1207 15.4124 14.0529L15.5386 13.9191C16.9432 12.5465 17.6672 11.0906 17.7433 9.52705L17.75 9.25L17.7458 9.02944C17.6299 5.95602 15.1018 3.5 12 3.5ZM14.7608 15.704C13.9414 15.2546 13.0005 14.999 12 14.999C10.9997 14.999 10.0591 15.2544 9.23981 15.7036L9.538 16.998H14.461L14.7608 15.704ZM12 7.49902C11.0335 7.49902 10.25 8.28253 10.25 9.24902C10.25 10.2155 11.0335 10.999 12 10.999C12.9665 10.999 13.75 10.2155 13.75 9.24902C13.75 8.28253 12.9665 7.49902 12 7.49902ZM8.75 9.24902C8.75 7.4541 10.2051 5.99902 12 5.99902C13.7949 5.99902 15.25 7.4541 15.25 9.24902C15.25 11.0439 13.7949 12.499 12 12.499C10.2051 12.499 8.75 11.0439 8.75 9.24902Z" fill="#424646"/>
</svg>
