<svg width="24" height="24" viewBox="0 0 24 24" fill="none" xmlns="http://www.w3.org/2000/svg">
<rect x="2.5" y="2.5" width="19" height="19" rx="2" fill="black"/>
<path fill-rule="evenodd" clip-rule="evenodd" d="M8.37505 6.68756C8.37505 5.75276 7.61323 4.99414 6.67681 4.99414C5.73624 4.99414 4.97754 5.75276 4.97754 6.68756C4.97754 7.6234 5.73624 8.38201 6.67681 8.38201C7.61323 8.38201 8.37505 7.6234 8.37505 6.68756ZM15.5981 9.43247C18.5643 9.43247 19.112 11.3777 19.112 13.9085V19.0624H16.1832L16.1823 14.2463C16.1723 13.2029 16.0532 12.0016 14.6616 12.0016C13.137 12.0016 12.9042 13.1893 12.9042 14.4153V19.0624H9.97954V9.66565H12.7867V10.9497H12.8273C13.217 10.2108 14.1732 9.43247 15.5981 9.43247ZM8.14266 9.66576V19.0625H5.21076V9.66576H8.14266Z" fill="white"/>
</svg>
